<svg xmlns="http://www.w3.org/2000/svg" viewBox="915.084 265 88.833 107.7">
    <defs>
        <style>
            .cls-1{fill:#f7115e}
        </style>
    </defs>
    <path id="ic_We_pay_attention_to_your_details" d="M.016 56.5c.4-13.1 10.6-23.8 23.8-23.8a23.908 23.908 0 0 1 20.6 11.8 23.823 23.823 0 0 1 20.6-11.8c13.1 0 23.4 10.7 23.8 23.8 1 29.8-44.4 51.2-44.4 51.2S-.984 86.3.016 56.5zM72.25 21.752L83.425 6.016l3.262 2.316-11.176 15.736zM5.289 8.272l3.262-2.316 11.173 15.737-3.262 2.316zM43.916 20.6V0h4v20.6z" class="cls-1" data-name="ic We pay attention to your details" transform="translate(915.084 265)"/>
</svg>
