<svg xmlns="http://www.w3.org/2000/svg" viewBox="668 636.1 88.575 87.1">
    <defs>
        <style>
            .cls-1{fill:#f7115e}
        </style>
    </defs>
    <path id="ic_Quiet_world" d="M53.2 75.8a32.73 32.73 0 0 0 10.7-5.4L44.7 51.2v32L20 58.5h-4.8a15.2 15.2 0 0 1 0-30.4h6.2l.1-.1-18-18a5.07 5.07 0 0 1 0-7.2 5.042 5.042 0 0 1 7.1-.1L84.9 77a5.109 5.109 0 0 1 .1 7l-.1.1a4.984 4.984 0 0 1-7.2.1l-6-6c-.2.2-.4.3-.6.5a45.227 45.227 0 0 1-17.9 8.4zm35.3 4.8c.067 0 .089.044.067.044s-.034-.01-.067-.044zM74.9 56.5a32.666 32.666 0 0 0 2.6-12.9 33.625 33.625 0 0 0-24.3-32.3V0a44.614 44.614 0 0 1 29.9 64.7zM53.3 34.7v-12a23.03 23.03 0 0 1 13.5 20.9 28.5 28.5 0 0 1-.4 4.2zM33.1 15.1C38.8 8.9 44.4 2.8 44.7 2.8v23.9z" class="cls-1" data-name="ic Quiet world" transform="translate(668 636.1)"/>
</svg>
