<svg xmlns="http://www.w3.org/2000/svg" viewBox="1167 634.5 102 88.2">
    <defs>
        <style>
            .cls-1{fill:#f7115e}
        </style>
    </defs>
    <path id="ic_We_make_it_crystal_clear" d="M78 87.8l-2.4-6.4a18.8 18.8 0 0 0-11.2-11.2L58 67.8a.65.65 0 0 1 0-1.2l6.4-2.4A18.794 18.794 0 0 0 75.6 53l2.4-6.4a.649.649 0 0 1 1.2 0l2.4 6.4a18.791 18.791 0 0 0 11.2 11.2l6.4 2.4a.649.649 0 0 1 0 1.2l-6.4 2.4a18.794 18.794 0 0 0-11.2 11.2l-2.4 6.4a.65.65 0 0 1-1.2 0zM34.3 73.7l-4-10.8a31.755 31.755 0 0 0-18.8-18.8l-10.8-4a1.2 1.2 0 0 1-.7-1 .993.993 0 0 1 .7-1l10.8-4a31.753 31.753 0 0 0 18.8-18.8l4-10.8a1.205 1.205 0 0 1 1-.7.993.993 0 0 1 1 .7l4 10.8a31.75 31.75 0 0 0 18.8 18.8l10.8 4a1.205 1.205 0 0 1 .7 1 1 1 0 0 1-.7 1l-10.8 4a31.75 31.75 0 0 0-18.8 18.8l-4 10.8a1.2 1.2 0 0 1-1 .7.994.994 0 0 1-1-.7zm50.5-40.6L82.9 28a15.053 15.053 0 0 0-8.9-8.9l-5.1-1.9a.566.566 0 0 1 0-1l5.1-1.9a15.051 15.051 0 0 0 8.9-8.9L84.8.3a.567.567 0 0 1 1 0l1.9 5.1a15.049 15.049 0 0 0 8.9 8.9l5.1 1.9a.462.462 0 0 1 .3.5.549.549 0 0 1-.3.5l-5.1 1.9a15.052 15.052 0 0 0-8.9 8.9l-1.9 5.1a.567.567 0 0 1-1 0z" class="cls-1" data-name="ic We make it crystal clear" transform="translate(1167 634.5)"/>
</svg>
