<svg xmlns="http://www.w3.org/2000/svg" viewBox="1404 271 104.571 101.6">
    <defs>
        <style>
            .cls-1{fill:#f7115e}
        </style>
    </defs>
    <path id="ic_We_care_about_your_safety" d="M59.169 101.6V77.9a26.463 26.463 0 0 1 7.7-18.5l5-3.3a45.481 45.481 0 0 0 10.4-9.7l3.7-5a6.326 6.326 0 0 1 8.6.2 6.256 6.256 0 0 1 .4 8.3l-17.8 21.9a1.78 1.78 0 1 0 2.8 2.2l17.7-21.8a9.79 9.79 0 0 0-.7-13 10.3 10.3 0 0 0-4.8-2.6 3.169 3.169 0 0 1-2.5-3.5l1.6-10.3a5.108 5.108 0 0 1 4.7-4.3 5 5 0 0 1 5.4 4.4l3 24a22.069 22.069 0 0 1-4.2 16.1l-18.8 25.1.1 13.5zm-36-.1V88.1l-.1-.4.1.4-18.8-25.2a22.283 22.283 0 0 1-4.2-16l3-24a5 5 0 0 1 5.4-4.4 5.108 5.108 0 0 1 4.7 4.3l1.6 10.3a3.168 3.168 0 0 1-2.5 3.5 10.3 10.3 0 0 0-4.8 2.6 9.79 9.79 0 0 0-.7 13L24.668 74a1.78 1.78 0 1 0 2.8-2.2l-17.9-21.9a6.256 6.256 0 0 1 .4-8.3 6.324 6.324 0 0 1 8.6-.2l3.7 5a45.481 45.481 0 0 0 10.4 9.7l5 3.3a26.052 26.052 0 0 1 7.7 18.4v23.7zm30-45.3a24.853 24.853 0 0 1-4.018-2 39.035 39.035 0 0 1-8.781-7.283 44.5 44.5 0 0 1-8.631-14.464A63.905 63.905 0 0 1 28.168 8.9a48.552 48.552 0 0 0 8.375-1.337 51.746 51.746 0 0 0 8.077-2.67A40.925 40.925 0 0 0 53.168 0 40.961 40.961 0 0 0 61.7 4.892a51.461 51.461 0 0 0 8.054 2.67A46.992 46.992 0 0 0 78.169 8.9 63.918 63.918 0 0 1 74.6 32.449a44.5 44.5 0 0 1-8.632 14.464 38.99 38.99 0 0 1-8.781 7.287 24.905 24.905 0 0 1-4.019 2zm-16.9-41.4c.568 9 2.906 16.71 6.95 22.925a31.406 31.406 0 0 0 9.95 9.876 31.883 31.883 0 0 0 9.875-9.876c4.05-6.225 6.414-13.938 7.025-22.925a56.19 56.19 0 0 1-16.9-6.2 61.549 61.549 0 0 1-16.901 6.2z" class="cls-1" data-name="ic We care about your safety" transform="translate(1404 271)"/>
</svg>
