<svg id="Layer_1" data-name="Layer 1" xmlns="http://www.w3.org/2000/svg" viewBox="0 0 159.62 61.54"><defs><style>.cls-1{font-size:11.22px;fill:#7d7b91;font-family:SanFranciscoDisplay-Medium, San Francisco Display;}.cls-2{fill:#e6378f;}.cls-3{fill:#44d3f4;}.cls-4{fill:#1b1932;}.cls-5{fill:#fff;}</style></defs><title>Web_Logo</title><text class="cls-1" transform="translate(1.38 56.6)">Ride Safely, Ride with Ego</text><text class="cls-1" transform="translate(1.38 56.6)">Ride Safely, Ride with Ego</text><path class="cls-2" d="M26.49,5.49l6.66,3.75a13.3,13.3,0,0,1,.24,23l-6.58,3.9-6.58,3.89A13.3,13.3,0,0,1,.16,28.75L.08,21.1,0,13.46A13.3,13.3,0,0,1,19.83,1.73Z"/><path class="cls-3" d="M15.33,36.44,8.67,32.69a13.3,13.3,0,0,1-.24-23L15,5.76l6.58-3.89A13.3,13.3,0,0,1,41.66,13.18l.07,7.65.08,7.64A13.29,13.29,0,0,1,22,40.19Z"/><path class="cls-4" d="M33.15,9.24,26.49,5.49,20.85,2.31,15,5.76,8.43,9.65a13.3,13.3,0,0,0,.24,23l6.66,3.75L21,39.62l5.84-3.45,6.58-3.9A13.3,13.3,0,0,0,33.15,9.24Z"/><path class="cls-5" d="M29.65,21.22h0a8.77,8.77,0,0,0,.08-1.15h0a9,9,0,0,0-.38-2.56h0a8.81,8.81,0,0,0-7.53-6.19h0l-.4,0h-.49a8.8,8.8,0,0,0-8.64,7.15h0c0,.14-.05.27-.07.41v.07c0,.12,0,.24,0,.36a.62.62,0,0,0,0,.13c0,.1,0,.21,0,.31v.19a1,1,0,0,0,0,.17v.15h0a8.69,8.69,0,0,0,.42,2.56h0A10.57,10.57,0,0,0,13,23.9c2.11,5.21,7.18,8.44,7.9,8.88l.05,0h0v0c.24-.14,6-3.57,8.1-9.3a8.67,8.67,0,0,0,.6-2.22A.19.19,0,0,0,29.65,21.22Z"/><circle class="cls-4" cx="20.91" cy="20.13" r="3.07"/><path class="cls-4" d="M82.05,9.85A2.75,2.75,0,0,0,79.3,7.1H62.83a13.92,13.92,0,0,0,0,27.84H79.3a2.76,2.76,0,0,0,0-5.51H62.83a8.41,8.41,0,1,1,0-16.82H79.3A2.76,2.76,0,0,0,82.05,9.85Z"/><path class="cls-4" d="M145.7,7.1h-7.78a13.92,13.92,0,1,0,0,27.84h7.78a13.92,13.92,0,1,0,0-27.84Zm0,22.33h-7.78a8.41,8.41,0,1,1,0-16.82h7.78a8.41,8.41,0,1,1,0,16.82Z"/><path class="cls-4" d="M111.83,18.27H99.05a2.75,2.75,0,1,0,0,5.5h12.78a2.83,2.83,0,0,1,0,5.66H98a8.41,8.41,0,1,1,0-16.82h15.45a2.76,2.76,0,0,0,0-5.51H98a13.92,13.92,0,1,0,0,27.84h13.87a8.34,8.34,0,0,0,0-16.67Z"/><path class="cls-4" d="M63.67,18.27a2.75,2.75,0,0,0,0,5.5H75.85a2.75,2.75,0,0,0,0-5.5Z"/></svg>