<svg xmlns="http://www.w3.org/2000/svg" width="404" height="361" viewBox="0 0 404 361">
    <g fill="none" fill-rule="evenodd">
        <path fill="#80B1DB" fill-rule="nonzero" d="M404 76.175C381.05 74.66 362.53 56.85 360.144 34h-.48C357.268 56.773 338.864 74.549 316 76.175v.384c24.079 1.729 42.964 21.34 43.76 45.441h.192c.795-24.21 19.85-43.867 44.048-45.441v-.384zM288 29.3c-15.907-1.047-28.747-13.42-30.404-29.3h-.384c-1.667 15.801-14.39 28.14-30.212 29.3v.191C243.655 30.7 256.724 44.285 257.308 61h.096c.54-16.806 13.745-30.448 30.5-31.509V29.3H288zM277.617 96H84.287L0 180.261 181 361l181-180.739z"/>
        <path fill="#77A8D1" fill-rule="nonzero" d="M181 361L90.548 180H0zM181 361l90.356-181H362z"/>
        <path fill="#8CBCE6" fill-rule="nonzero" d="M90 180l-6.223-84L0 180zM271 180l6.286-84L362 180zM271 180l-90.5-84L90 180z"/>
        <path fill="#FFF" fill-rule="nonzero" d="M305 180.215c-28.067 1.83-50.157 24.672-51.048 52.785h-.193c-.934-27.969-22.845-50.712-50.759-52.689v-.386c26.503-1.857 47.836-22.497 50.566-48.925h.579c2.765 26.522 24.246 47.188 50.855 48.925v.29z"/>
        <circle cx="262.5" cy="341.5" r="8.5" stroke="#6B9EC9" stroke-width="4"/>
    </g>
</svg>
