<svg xmlns="http://www.w3.org/2000/svg" width="311" height="375" viewBox="0 0 311 375">
    <g fill="none" fill-rule="nonzero">
        <circle cx="155.7" cy="194.4" r="154.8" fill="#CBE3F7"/>
        <path fill="#80B1DB" d="M175.3 360.9L14.1 284.2c-9.312-4.438-13.29-15.565-8.9-24.9L53 158.9c4.438-9.312 15.565-13.29 24.9-8.9l161.2 76.7c9.312 4.438 13.29 15.565 8.9 24.9L200.2 352a18.578 18.578 0 0 1-24.9 8.9z"/>
        <path fill="#6B9EC9" d="M197.9 313.4L36.7 236.7c-9.312-4.438-13.29-15.565-8.9-24.9L53 158.9c4.438-9.312 15.565-13.29 24.9-8.9l161.2 76.7c9.312 4.438 13.29 15.565 8.9 24.9l-25.2 52.9a18.578 18.578 0 0 1-24.9 8.9z"/>
        <path fill="#345878" d="M200.5 208.5l-10.5-5.3 4.3-8.6a13.013 13.013 0 0 0 .5-9.7 12.8 12.8 0 0 0-6.6-7.3L149.1 159a12.387 12.387 0 0 0-9.8-.5 12.8 12.8 0 0 0-7.3 6.6l-4.4 8.7-10.5-5.3 4.3-8.6a24.545 24.545 0 0 1 32.8-11.5l39.1 18.6c5.9 2.8 10.436 7.84 12.6 14a24.084 24.084 0 0 1-1 18.8l-4.4 8.7z"/>
        <path fill="#FFF" d="M168.2 106.9l-5 6.4 40.1 21.1 2.7-7.1z"/>
        <path fill="#FDC39D" d="M165.3 114.5s-22.6 14.5-23 40.2c0 0-.1 5.9 2.9 8.9s5.7-.7 5.7-.7-.1 5.6 3.9 7.9c4.1 2.3 7.7-1 7.7-1s2.2 11.3 11.1 4.3c0 0 2.4 8.3 9.3 7.8 6.9-.4 15.5-11.6 17.5-24.2 2.7-17.3.9-24.2.9-24.2l-36-19z"/>
        <path fill="#E0B192" d="M195.4 171.5c-.4.3-11.7 8.2-18.9-1 0 0-9 3.7-11.9-3.7 0 0-8.7 2.5-12.1-6 0 0-10.6 1.9-9.8-10.2-.1 1.4-.3 2.7-.3 4.2 0 0-.1 5.9 2.9 8.9s5.7-.7 5.7-.7-.1 5.6 3.9 7.9c4.1 2.3 7.7-1 7.7-1s2.2 11.3 11.1 4.3c0 0 2.4 8.3 9.3 7.8 4.1-.4 8.8-4.5 12.4-10.5z"/>
        <path fill="#FFF" d="M119.3 291l-15.7-7.5a2.731 2.731 0 0 1-1.3-3.7l9.6-20.2a2.731 2.731 0 0 1 3.7-1.3l15.7 7.5a2.731 2.731 0 0 1 1.3 3.7l-9.6 20.2a2.7 2.7 0 0 1-3.7 1.3z"/>
        <path fill="#6B9EC9" d="M166.5 106l41.1 22.2c1.8-27.7 27.3-61 30.4-64.9a155.737 155.737 0 0 0-51.3-20.6c-22.5 38.2-20.2 63.3-20.2 63.3z"/>
        <path fill="#E0B192" d="M165.3 114.5l-1.6 1.1 38 19.9-.3-2.1z"/>
        <path fill="#6B9EC9" d="M114.8 11.8a2.5 2.5 0 0 1-3.1-3.4l3.2-6.9a2.483 2.483 0 0 1 4.5 2.1l-3.2 6.9c-.28.6-.782 1.065-1.4 1.3zM106.2 30.3a2.5 2.5 0 0 1-3.1-3.4l3.2-6.9a2.483 2.483 0 0 1 4.5 2.1l-3.2 6.9c-.28.6-.782 1.065-1.4 1.3zM124.8 23.5a2.51 2.51 0 0 1-1.9-.1l-6.9-3.2a2.483 2.483 0 1 1 2.1-4.5l6.9 3.2a2.522 2.522 0 0 1 1.2 3.3 2.235 2.235 0 0 1-1.4 1.3zM106.3 14.9a2.51 2.51 0 0 1-1.9-.1l-6.9-3.2a2.483 2.483 0 1 1 2.1-4.5l6.9 3.2a2.5 2.5 0 0 1-.2 4.6z"/>
        <circle cx="249.1" cy="169.7" r="15.8" fill="#FFF"/>
        <path fill="#80B1DB" d="M68.4 356.4H65V353a1.5 1.5 0 0 0-3 0v3.4h-3.4a1.5 1.5 0 0 0 0 3H62v3.4a1.5 1.5 0 0 0 3 0v-3.4h3.4a1.5 1.5 0 0 0 0-3z"/>
        <path fill="#80B1DB" d="M63.5 341.4c-9.057 0-16.4 7.343-16.4 16.4 0 9.057 7.343 16.4 16.4 16.4 9.057 0 16.4-7.343 16.4-16.4-.006-9.055-7.345-16.394-16.4-16.4zm0 29.9c-7.4 0-13.4-6-13.4-13.4s6-13.4 13.4-13.4 13.4 6 13.4 13.4-6 13.4-13.4 13.4z"/>
    </g>
</svg>
