<svg xmlns="http://www.w3.org/2000/svg" width="343" height="307" viewBox="0 0 343 307">
    <g fill="none" fill-rule="nonzero">
        <path fill="#6B9EC9" d="M335.507 97a2.53 2.53 0 0 1-1.76-.676 2.398 2.398 0 0 1-.099-3.379l5.185-5.213a2.445 2.445 0 0 1 3.408-.08c.966.9 1.017 2.4.114 3.363l-5.185 5.212a2.934 2.934 0 0 1-1.663.773zM321.507 111a2.53 2.53 0 0 1-1.76-.676 2.398 2.398 0 0 1-.099-3.379l5.185-5.213a2.445 2.445 0 0 1 3.408-.08c.966.9 1.017 2.4.114 3.363l-5.185 5.212a2.251 2.251 0 0 1-1.663.773zM340.718 111a2.47 2.47 0 0 1-1.738-.68l-5.214-5.15a2.415 2.415 0 0 1-.703-2.313 2.4 2.4 0 0 1 1.65-1.758 2.38 2.38 0 0 1 2.336.574l5.214 5.15c.944.919.987 2.427.097 3.4a2.374 2.374 0 0 1-1.642.777zM326.645 97a2.434 2.434 0 0 1-1.722-.68l-5.164-5.15a2.43 2.43 0 0 1-.697-2.313 2.39 2.39 0 0 1 1.635-1.758 2.342 2.342 0 0 1 2.313.574l5.26 5.15c.935.919.977 2.427.096 3.4a2.553 2.553 0 0 1-1.721.777z"/>
        <path fill="#80B1DB" d="M31.476 22.977h-3.453v-3.454a1.523 1.523 0 1 0-3.047 0v3.454h-3.453a1.523 1.523 0 0 0 0 3.046h3.453v3.454a1.523 1.523 0 1 0 3.047 0v-3.454h3.453A1.562 1.562 0 0 0 33 24.5a1.496 1.496 0 0 0-1.524-1.523z"/>
        <path fill="#80B1DB" d="M26 8c-8.837 0-16 7.163-16 16s7.163 16 16 16 16-7.163 16-16c-.005-8.834-7.166-15.995-16-16zm0 29.073c-7.22 0-13.073-5.853-13.073-13.073 0-7.22 5.853-13.073 13.073-13.073 7.22 0 13.073 5.853 13.073 13.073A13.073 13.073 0 0 1 26 37.073z"/>
        <ellipse cx="152.5" cy="153" fill="#8CBCE6" rx="152.5" ry="153"/>
        <circle cx="152.5" cy="152.5" r="112.5" fill="#E8F5FF"/>
        <path fill="#FFF" stroke="#6B9EC9" stroke-width="9" d="M218.25 187.76l-50.912-7.698a.66.66 0 0 0-.69.395l-23.043 46.19a.624.624 0 0 1-1.182-.197l-8.469-50.928a.528.528 0 0 0-.492-.494l-50.913-7.698a.625.625 0 0 1-.197-1.185l45.694-23.786a.51.51 0 0 0 .295-.69l-8.469-50.928a.67.67 0 0 1 1.083-.593l36.732 36.222c.222.183.528.221.788.1l45.693-23.787a.652.652 0 0 1 .776.111c.205.206.25.522.11.777l-23.043 46.19a.747.747 0 0 0 .099.79l36.731 36.222c.394.296 0 1.086-.59.987zM134 175l-49 49M11.975 297.106c6.596 6.525 17.207 6.525 23.803 0l59.852-59.91a1.376 1.376 0 0 0 0-1.878L73.605 213.37a1.373 1.373 0 0 0-1.877 0l-59.851 59.91c-6.54 6.608-6.497 17.271.098 23.825z"/>
        <path fill="#CBE3F7" d="M83.783 229l-56.25 56.47A11.804 11.804 0 0 1 13 287.156a11.793 11.793 0 0 0 7.69 10.13 11.721 11.721 0 0 0 12.378-2.786L91 236.344 83.783 229z"/>
        <circle cx="163.5" cy="89.5" r="7.5" fill="#6B9EC9"/>
        <circle cx="182.5" cy="213.5" r="7.5" fill="#6B9EC9"/>
        <circle cx="93.5" cy="125.5" r="7.5" fill="#6B9EC9"/>
    </g>
</svg>
